<?xml version="1.0" encoding="UTF-8" standalone="no"?>
<!-- Created with Inkscape (http://www.inkscape.org/) -->

<svg
   xmlns:dc="http://purl.org/dc/elements/1.1/"
   xmlns:cc="http://creativecommons.org/ns#"
   xmlns:rdf="http://www.w3.org/1999/02/22-rdf-syntax-ns#"
   xmlns:svg="http://www.w3.org/2000/svg"
   xmlns="http://www.w3.org/2000/svg"
   xmlns:sodipodi="http://sodipodi.sourceforge.net/DTD/sodipodi-0.dtd"
   xmlns:inkscape="http://www.inkscape.org/namespaces/inkscape"
   width="64mm"
   height="63mm"
   viewBox="0 0 64 63"
   version="1.1"
   id="svg8"
   inkscape:version="0.92.4 5da689c313, 2019-01-14"
   sodipodi:docname="logo.svg">
  <defs
     id="defs2" />
  <sodipodi:namedview
     id="base"
     pagecolor="#ffffff"
     bordercolor="#666666"
     borderopacity="1.0"
     inkscape:pageopacity="0.0"
     inkscape:pageshadow="2"
     inkscape:zoom="1.979899"
     inkscape:cx="261.93926"
     inkscape:cy="93.026314"
     inkscape:document-units="mm"
     inkscape:current-layer="layer1"
     showgrid="false"
     inkscape:window-width="1920"
     inkscape:window-height="1015"
     inkscape:window-x="0"
     inkscape:window-y="0"
     inkscape:window-maximized="1"
     showguides="false" />
  <metadata
     id="metadata5">
    <rdf:RDF>
      <cc:Work
         rdf:about="">
        <dc:format>image/svg+xml</dc:format>
        <dc:type
           rdf:resource="http://purl.org/dc/dcmitype/StillImage" />
        <dc:title></dc:title>
      </cc:Work>
    </rdf:RDF>
  </metadata>
  <g
     inkscape:label="Camada 1"
     inkscape:groupmode="layer"
     id="layer1"
     transform="translate(0,-234)">
    <g
       id="g933">
      <g
         transform="matrix(0.68784365,0,0,0.68784365,-80.874853,192.05589)"
         id="g1055-4-8">
        <path
           style="opacity:1;fill:#999999;fill-opacity:1;stroke-width:0.15969349"
           d="m 151.06673,106.75175 a 6.1928597,6.4093939 75 0 0 -4.77788,6.4706 l -9.21402,4.96395 a 6.1928597,6.4093939 75 0 0 -6.76867,-2.24008 6.1928597,6.4093939 75 0 0 -4.58836,7.64072 6.1928597,6.4093939 75 0 0 7.79399,4.32287 6.1928597,6.4093939 75 0 0 4.69846,-7.12256 l 8.95999,-4.7997 a 6.1928597,6.4093939 75 0 0 7.10213,2.72777 6.1928597,6.4093939 75 0 0 3.59557,-2.46428 l 13.99427,4.78879 0.0174,-0.0325 a 6.1928597,6.4093939 75 0 0 0.1678,2.13625 6.1928597,6.4093939 75 0 0 7.79399,4.32288 6.1928597,6.4093939 75 0 0 4.58806,-7.64064 6.1928597,6.4093939 75 0 0 -0.70312,-1.61177 l 9.26323,-9.86823 a 6.1928597,6.4093939 75 0 0 5.05157,0.70398 6.1928597,6.4093939 75 0 0 4.58806,-7.64062 6.1928597,6.4093939 75 0 0 -7.79369,-4.322942 6.1928597,6.4093939 75 0 0 -4.58834,7.640702 6.1928597,6.4093939 75 0 0 0.46955,1.19324 l -9.46822,10.04679 a 6.1928597,6.4093939 75 0 0 -4.61273,-0.46411 6.1928597,6.4093939 75 0 0 -3.56263,2.41605 l -14.03842,-4.77282 a 6.1928597,6.4093939 75 0 0 -0.17436,-2.07151 6.1928597,6.4093939 75 0 0 -7.79368,-4.32298 z"
           id="path4529-6-3-0"
           inkscape:connector-curvature="0" />
        <path
           sodipodi:nodetypes="sscssccccc"
           inkscape:connector-curvature="0"
           style="opacity:1;fill:#00a1f1;fill-opacity:1;stroke-width:0.16435422"
           d="m 164.03392,68.739295 c -7.95922,0.02405 -15.12397,6.227922 -14.36981,13.772798 1.11922,11.197056 11.4661,12.153591 14.57669,27.564587 5.44253,-17.385764 13.25452,-17.081512 14.24589,-27.651662 0.70805,-7.549345 -6.49356,-13.709767 -14.45277,-13.685723 z m 0.40948,6.431719 c 3.36344,-0.01011 6.09843,2.762263 6.1088,6.192307 0.0103,3.430042 -2.70783,6.218887 -6.07127,6.229103 -3.36355,0.01027 -6.0987,-2.76215 -6.10908,-6.192306 -0.0103,-3.430154 2.708,-6.219045 6.07155,-6.229104 z"
           id="path4576-7-7-1" />
      </g>
      <text
         xml:space="preserve"
         style="font-style:normal;font-variant:normal;font-weight:normal;font-stretch:normal;font-size:8.18678188px;line-height:1.25;font-family:'Dream Orphanage';-inkscape-font-specification:'Dream Orphanage';letter-spacing:0px;word-spacing:0px;fill:#333333;fill-opacity:1;stroke:none;stroke-width:0.20466952"
         x="10.737164"
         y="289.54034"
         id="text828-36"><tspan
           sodipodi:role="line"
           id="tspan826-75"
           x="10.737164"
           y="289.54034"
           style="font-style:normal;font-variant:normal;font-weight:bold;font-stretch:normal;font-family:Biko;-inkscape-font-specification:Biko;fill:#333333;fill-opacity:1;stroke-width:0.20466952">MY  PLACE</tspan></text>
      <text
         xml:space="preserve"
         style="font-style:normal;font-weight:normal;font-size:5.33887815px;line-height:1.25;font-family:sans-serif;letter-spacing:0px;word-spacing:0px;fill:#000000;fill-opacity:1;stroke:none;stroke-width:0.13347195"
         x="15.34553"
         y="344.328"
         id="text832-3"
         transform="scale(1.1678703,0.85625946)"><tspan
           sodipodi:role="line"
           id="tspan830-5"
           x="15.34553"
           y="344.328"
           style="font-style:normal;font-variant:normal;font-weight:normal;font-stretch:normal;font-family:Acre;-inkscape-font-specification:Acre;letter-spacing:2.18390346px;fill:#535353;fill-opacity:1;stroke-width:0.13347195">STATS</tspan></text>
    </g>
  </g>
</svg>
