<?xml version="1.0" encoding="ISO-8859-1"?>
<!DOCTYPE svg PUBLIC "-//W3C//DTD SVG 1.0//EN" "http://www.w3.org/TR/2001/REC-SVG-20010904/DTD/svg10.dtd">    
    <svg version="1.1" id="svg-map" xmlns="http://www.w3.org/2000/svg" xmlns:xlink="http://www.w3.org/1999/xlink"
      x="0px" y="0px" width="450px" height="460px" viewBox="0 0 450 460" enable-background="new 0 0 450 460"
      xml:space="preserve">
      <g>
        <a xlink:href="#acre" id="Acre" title="Acre" class="estado" name="Acre" code="12">
          <path stroke="#FFFFFF" stroke-width="1.0404" stroke-linecap="round" stroke-linejoin="round"
            d="M3.656,148.545
        c12.557,7.544,27.524,8.367,41.082,13.2c12.802,8.065,27.278,12.845,40.616,19.872c-2.834,1.205-7.587,4.382-9.983,6.395
        c-2.93,2.45-1.3,2.04-4.628,1.957c-2.93-0.069-3.957,4.615-7.203,5.259c-2.999,0.603-7.161-1.958-10.995-1.697
        c-1.905,0.136-11.969-0.056-12.64,0.603c0.313-3.642-0.385-7.299-0.165-10.941c0.096-1.439,1.998-6.533,1.245-7.451
        c-6.82,3.149-8.339,7.19-16.733,7.013c-2.136-0.042-2.562-2.492-3.081-4.001c-1.247-3.572-7.218-3.422-10.559-3.778
        c6.299-3.41-3.107-11.9-5.216-15.679c-0.52-0.918-3.588-4.655-3.629-5.957C1.642,150.174,6.612,151.968,3.656,148.545z"></path>
          <text transform="matrix(1 0 0 1 47.7017 184.9355)" fill="#FFFFFF">AC</text>
        </a>
        </g>
    </svg>