<?xml version="1.0" encoding="ISO-8859-1"?>
<!DOCTYPE svg PUBLIC "-//W3C//DTD SVG 1.0//EN" "http://www.w3.org/TR/2001/REC-SVG-20010904/DTD/svg10.dtd">    
    <svg version="1.1" id="svg-map" xmlns="http://www.w3.org/2000/svg" xmlns:xlink="http://www.w3.org/1999/xlink"
      x="0px" y="0px" width="450px" height="460px" viewBox="0 0 450 460" enable-background="new 0 0 450 460"
      xml:space="preserve">
      <g>
        <a xlink:href="#alagoas" id="Alagoas" title="Alagoas" class="estado" name="Alagoas" code="27">
          <path stroke="#FFFFFF" stroke-width="1.0404" stroke-linecap="round" stroke-linejoin="round" d="M413.953,169.018
        c3.78,3.313,9.424,5.505,12.547,5.491c3.229-0.013,5.009-3.328,7.421-4.794c1.177-0.712,10.297-1.93,9.174,1.042
        c-1.807,4.848-7.122,8.585-10.024,12.789c-2.792,2-3.423,7.093-6.354,1.864c-3.259,0.424-3.722-4.424-6.957-4.477
        c-3.668-2.261-7.998-3.769-11.201-6.342C410.615,172.646,412.751,171.359,413.953,169.018z"></path>
          <path class="circle" d="M436.423,168.763c6.236,0,11.258,5.054,11.258,11.278c0,6.207-5.02,11.259-11.258,11.259
        c-6.241,0-11.263-5.052-11.263-11.259C425.16,173.816,430.182,168.763,436.423,168.763z"></path>
          <text transform="matrix(1 0 0 1 429.7891 183.895)" fill="#FFFFFF">AL</text>
        </a>
        </g>
    </svg>