<?xml version="1.0" encoding="ISO-8859-1"?>
<!DOCTYPE svg PUBLIC "-//W3C//DTD SVG 1.0//EN" "http://www.w3.org/TR/2001/REC-SVG-20010904/DTD/svg10.dtd">    
    <svg version="1.1" id="svg-map" xmlns="http://www.w3.org/2000/svg" xmlns:xlink="http://www.w3.org/1999/xlink"
      x="0px" y="0px" width="450px" height="460px" viewBox="0 0 450 460" enable-background="new 0 0 450 460"
      xml:space="preserve">
      <g>
        <a xlink:href="#amapa" id="Amapá" title="Amapá" class="estado" name="Amapá" code="16">
          <path stroke="#FFFFFF" stroke-width="1.0404" stroke-linecap="round" stroke-linejoin="round" d="M225.198,39.089
        c3.274,1.165,3.985-1.315,6.572-1.74c3.616-0.603,5.683,2.725,9.037,2.067c4.055-0.78,7.093-8.025,7.314-11.598
        c4.492-3.534,5.503-11.258,9.42-14.68c6.055,4.258,6.11,15.788,7.589,22.485c-0.164,0.083,6.57,7.998,7.944,8.682
        c3.396,1.657,3.366,6.203,0.078,9.34c-3.777,3.587-7.449,34.275-7.449,34.275h-46.489c0,0,0.932-50.366,0-51.449
        C221.814,36.458,223.334,38.417,225.198,39.089z"></path>
          <text transform="matrix(1 0 0 1 245.9023 52.6099)" fill="#FFFFFF">AP</text>
        </a>
        </g>
    </svg>