<?xml version="1.0" encoding="ISO-8859-1"?>
<!DOCTYPE svg PUBLIC "-//W3C//DTD SVG 1.0//EN" "http://www.w3.org/TR/2001/REC-SVG-20010904/DTD/svg10.dtd">    
    <svg version="1.1" id="svg-map" xmlns="http://www.w3.org/2000/svg" xmlns:xlink="http://www.w3.org/1999/xlink"
      x="0px" y="0px" width="450px" height="460px" viewBox="0 0 450 460" enable-background="new 0 0 450 460"
      xml:space="preserve">
      <g>
        <a xlink:href="#amazonas" id="Amazonas" title="Amazonas" class="estado" name="Amazonas" code="13">
          <path stroke="#FFFFFF" stroke-width="1.0404" stroke-linecap="round" stroke-linejoin="round"
            d="M10.078,136.412
        c1.15-4.972,4.258-10.394,8.215-13.105c4.41-3.027,7.656-5.71,13.105-6.082c2.165-0.149,10.216-5.75,11.983-2.984
        c3.711,5.765,4.998-3.739,5.574-7.025c1.726-9.667,3.697-19.322,4.86-29.086c-0.342-1.356-2.013-6.231-2.833-7.163
        c-1.453-1.616-4.287-2.122-4.768-4.544c-0.272-1.452-0.574-7.258,1.109-8.121c3.494-1.768,6.547-0.042,9.737-0.89
        c-2.561-4.053,0.302-4.327-5.532-5.135c-3.438-0.466-3.971-2.466-2.738-6.368c1.053-3.3,15.898-1,19.088-1.396
        c-1.534,0.178-1.11-2.479-0.042-2.616c1.274-0.165,1.576,2.684,3.165,0.998c1.286-1.395,3.189-2.915,4.6-3.751
        c2.438-1.45,4.533,8.217,4.465,9.833c-0.041,0.78-0.137,2.438,1.177,2.246c3.012-0.466,4.219,2.849,7.273,4.231
        c3.778,1.713,3.929-1.355,7.023-2.068c4.301-0.985,0.711,3.396,2.383,3.793c1.589,0.385,3.806-4.969,4.821-5.572
        c0.93-0.533,3.725-0.753,4.846-1.602c3.013-2.245,1.933-1.686,3.492-1.206c3.478,1.041,2.233-8.367,6.491-7.066
        c1.822-0.466,3.643-2.34,5.533-2.423c1.041-0.043,6.066,2.287,6.544,3.147c0.589,1.465,0.316,2.795-0.793,3.986
        c1.575,1.425,2.698,3.149,3.355,5.162c0.904,2.862-1.286,6.807,0.588,9.299c-0.22,6.655,4.808,7.887-0.396,12.597
        c0.192-0.178,6.711,7.067,7.121,8.039c0.971-0.711,4.066,0.849,4.381,1.535c-1.658-3.629,0.547-17.09,6.628-10.915
        c7.203,7.327,5.491-3.615,9.148-8.627c2.834-3.875,14.597-3.136,14.077,3.246c-1.082,3.273,6.271,14.256,9.667,11.436
        c2.26,5.737,6.889,4.285,10.407,8.051c5.094,5.464,4.37,3.396,11.313,2.848c-2.259,3.602-3.425,4.808-5.272,8.86
        c-3.149,6.862-6.15,13.776-9.204,20.678c-2.437,5.505-14.843,23.471-11.105,28.442c4.806,6.395,9.339,30.183,11.324,29.934
        c-6.162-0.26-48.079-10.625-51.652-8.105c-1.453,1.013-53.626,10.503-55.9,10.819c-6.369,0.875-18.09-7.272-23.719-10.136
        c-8.601-4.381-16.61-8.981-26.088-11.05c-10.282-2.259-20.635-4.793-29.878-10.011C4.121,145.766,12.433,144.779,10.078,136.412z"></path>
          <text transform="matrix(1 0 0 1 98.1406 119.0591)" fill="#FFFFFF">AM</text>
        </a>
        </g>
    </svg>