<?xml version="1.0" encoding="ISO-8859-1"?>
<!DOCTYPE svg PUBLIC "-//W3C//DTD SVG 1.0//EN" "http://www.w3.org/TR/2001/REC-SVG-20010904/DTD/svg10.dtd">    
    <svg version="1.1" id="svg-map" xmlns="http://www.w3.org/2000/svg" xmlns:xlink="http://www.w3.org/1999/xlink"
      x="0px" y="0px" width="450px" height="460px" viewBox="0 0 450 460" enable-background="new 0 0 450 460"
      xml:space="preserve">
      <g>
        <a xlink:href="#bahia" id="Bahia" title="Bahia" class="estado" name="Bahia" code="29">
          <path stroke="#FFFFFF" stroke-width="1.0404" stroke-linecap="round" stroke-linejoin="round"
            d="M313.276,197.775
        c2.084-2.739,3.506-7.012,6.464-8.764c1.641-0.973,3.232-4.684,4.271-5.163c2.304-1.014,12.161-25.143,20.706-22.513
        c1.095,0.342,29.881,3.478,32.153,7.532c2.246-0.506,17.582-8.804,25.829-4.999c9.172,4.246,11.225,20.679,11.2,20.843
        c0.107,0.328-0.823,5.765-0.985,5.929c-1.15,1-5.258-0.807-4.22,2.138c1.317,3.751,5.094,10.583,9.97,6.613
        c-3.669,6.574-6.846,16.022-13.966,17.747c-5.808,1.411-4.605,13.421-5.178,18.037c-0.465,3.75,0.192,8.448,1.014,12.117
        c1.148,4.959-0.821,8.6-1.808,13.42c-0.822,4.162-0.219,8.299-0.987,12.297c-0.271,1.286-4.407,5.723-5.559,7.148
        c-1.616-1.426-63.952-37.248-73.1-36.265c1.149-3.738,2.438-9.559-0.741-12.723c-8.625-8.572-0.135-19.335-0.162-19.432
        c-0.546-1.725-5.396-6.079-0.026-7.175c-3.175,0.959-1.944-4.027,0.875-3.012C316.726,200.733,314.044,200.527,313.276,197.775z"></path>
          <text transform="matrix(1 0 0 1 359.7324 210.1221)" fill="#FFFFFF">BA</text>
        </a>
        </g>
    </svg>