<?xml version="1.0" encoding="ISO-8859-1"?>
<!DOCTYPE svg PUBLIC "-//W3C//DTD SVG 1.0//EN" "http://www.w3.org/TR/2001/REC-SVG-20010904/DTD/svg10.dtd">    
    <svg version="1.1" id="svg-map" xmlns="http://www.w3.org/2000/svg" xmlns:xlink="http://www.w3.org/1999/xlink"
      x="0px" y="0px" width="450px" height="460px" viewBox="0 0 450 460" enable-background="new 0 0 450 460"
      xml:space="preserve">
      <g>
        <a xlink:href="#ceara" id="Ceará" title="Ceará" class="estado" name="Ceará" code="23">
          <path stroke="#FFFFFF" stroke-width="1.0404" stroke-linecap="round" stroke-linejoin="round" d="M372.379,104.409
        c0.437-1.368,2.961-3.627,1.043-5.025c12.106-1.328,17.581-0.849,27.66,6.723c4.026,3.054,6.822,5.574,10.571,9.147
        c1.317,1.273,7.614,4.313,7.914,6.164c-0.054-0.316-5.396,3.696-5.997,5.217c-1.066,2.684-2.659,6.093-4.3,8.298
        c0.025-0.055-6.903,3.957-3.532,4.217c-4.41,3.821-1.015,8.135-0.797,11.517c0.196,2.767-4.38,7.587-6.765,5.422
        c-2.244-1.999-3.998-5.711-7.779-5.094c-1.998,0.329-5.476,2.189-7.612,0.479c-2.52-2.054,3.669-5.162-0.545-7.354
        c-6.987-3.615-1.264-15.393-6.684-20.239c-3.504-3.136,1.753-7.313,0.109-10.749C374.952,111.68,373.694,105.244,372.379,104.409
        C373.035,102.314,374.815,105.971,372.379,104.409z"></path>
          <text transform="matrix(1 0 0 1 386.8379 129.0347)" fill="#FFFFFF">CE</text>
        </a>
        </g>
    </svg>