<?xml version="1.0" encoding="ISO-8859-1"?>
<!DOCTYPE svg PUBLIC "-//W3C//DTD SVG 1.0//EN" "http://www.w3.org/TR/2001/REC-SVG-20010904/DTD/svg10.dtd">    
    <svg version="1.1" id="svg-map" xmlns="http://www.w3.org/2000/svg" xmlns:xlink="http://www.w3.org/1999/xlink"
      x="0px" y="0px" width="450px" height="460px" viewBox="0 0 450 460" enable-background="new 0 0 450 460"
      xml:space="preserve">
      <g>
        <a xlink:href="#distritofederal" id="Distritofederal" title="Distrito Federal" class="estado"
          name="Distrito Federal" code="53">
          <path stroke="#FFFFFF" stroke-width="1.0404" stroke-linecap="round" stroke-linejoin="round" d="M292.461,246.197
        c0,0,12.929-2.903,14.188,0c1.233,2.903,0.659,10.683-1.424,11.504c-2.08,0.849-14.296-1.806-14.023-3.313
        C291.503,252.853,292.461,246.197,292.461,246.197z"></path>
          <path class="circle" d="M300.735,238.34c6.212,0,11.26,5.035,11.26,11.258c0,6.21-5.048,11.263-11.26,11.263
        c-6.209,0-11.261-5.053-11.261-11.263C289.475,243.377,294.523,238.34,300.735,238.34z"></path>
          <text transform="matrix(1 0 0 1 292.4141 254.2139)" fill="#FFFFFF">DF</text>
        </a>
        </g>
    </svg>