<?xml version="1.0" encoding="ISO-8859-1"?>
<!DOCTYPE svg PUBLIC "-//W3C//DTD SVG 1.0//EN" "http://www.w3.org/TR/2001/REC-SVG-20010904/DTD/svg10.dtd">    
    <svg version="1.1" id="svg-map" xmlns="http://www.w3.org/2000/svg" xmlns:xlink="http://www.w3.org/1999/xlink"
      x="0px" y="0px" width="450px" height="460px" viewBox="0 0 450 460" enable-background="new 0 0 450 460"
      xml:space="preserve">
      <g>
        <a xlink:href="#goias" id="Goiás" title="Goiás" class="estado" name="Goiás" code="52">
          <path stroke="#FFFFFF" stroke-width="1.0404" stroke-linecap="round" stroke-linejoin="round"
            d="M237.768,270.519
        c0.628-2.904,1.835-7.396,4.709-8.766c1.015-1.644,1.754-5.147,2.275-5.586c2.408-2.247,3.889-3.783,6.63-4.656
        c3.723-1.205,3.338-5.342,4.846-8.165c1.504-2.845,4.736-1.15,5.942-3.382c1.479-2.834,0.741-6.161,2.189-8.874
        c2.902-5.531,1.862-17.363,8.656-20.567c-4.878,7.641,3.698,4.971,7.201,9.449c2.273,1.738,2.164-1.822,2.71-3.055
        c1.618-3.533,2.878,2.247,4.52-1.533c0.413,0.37,4.136,5.765,3.427,5.601c-0.029-0.931,0.326-1.408,1.037-1.438
        c0.108,0.534,0.274,1.013,0.602,1.452c-0.602-0.261,9.697-0.095,8.82,1.534c0.36-0.657-0.602-3.11,0.221-3.438
        c1.039-0.411,3.971,1.368,6.351,0.438c1.045-0.397,7.889-2.807,7.671-3.683c0.767,0.905,1.262,2.67,2.85,1.286
        c-2.632,2.274-2.576,4.466,1.258,3.821c-1.861,1.438-2.846,4.341-2.382,6.547c0.357,1.643,3.752,5.973,3.478,6.751
        c-1.78,0.315,0.602,5.438-2.325,6.078c-3.181,0.701-3.973-5.53-4.3,0.688c-0.164,1.48-1.097,1.67-2.768,0.576
        c-3.288,0.327-0.549,2.19-1.121,3.888c-0.988,2.902,2.792,6.437-2.411,6.764c-3.586,0.219-2.682,1.341-2.682-2.739
        c-0.028-4.573-12.054-3.643-10.218,0.521c-4.901,6.355,12.05-0.326,9.668,6.355c-1.313,3.752,15.83,28.211,10.406,25.416
        c-1.944-0.986-50.804,10.271-49.982,12.105c-5.012-2.136-11.804-7.941-17.391-8.162c-0.438-2.189-3.618-1.284-5.095-1.533
        c-3.724-0.604,1.04-3.231,0.22-4.109c-1.89-1.916-4.382,1.756-3.588-3.012C239.602,274.627,237.055,273.038,237.768,270.519z"></path>
          <text transform="matrix(1 0 0 1 266.9111 254.2139)" fill="#FFFFFF">GO</text>
        </a>
        </g>
    </svg>