<?xml version="1.0" encoding="ISO-8859-1"?>
<!DOCTYPE svg PUBLIC "-//W3C//DTD SVG 1.0//EN" "http://www.w3.org/TR/2001/REC-SVG-20010904/DTD/svg10.dtd">    
    <svg version="1.1" id="svg-map" xmlns="http://www.w3.org/2000/svg" xmlns:xlink="http://www.w3.org/1999/xlink"
      x="0px" y="0px" width="450px" height="460px" viewBox="0 0 450 460" enable-background="new 0 0 450 460"
      xml:space="preserve">
      <g>
        <a xlink:href="#maranhao" id="Maranhão" title="Maranhão" class="estado" name="Maranhão" code="21">
          <path stroke="#FFFFFF" stroke-width="1.0404" stroke-linecap="round" stroke-linejoin="round" d="M288.845,127.827
        c4.108-2.726,31.195-48.985,31.386-50.395c1.235,0.397,6.084,7.435,7.562,5.025c0.493,0.013-0.328,2.15-0.547,2.396
        c-0.054-0.135,2.189-2.286,2.52-2.436c0.521-0.233,1.948,1.903,3.451-0.726c5.642,1.575,1.314,14.31,9.121,11.694
        c-1.147,0.384,1.452,0.74,0.848,1.905c5.095-6.587,8.488-0.027,15.337,1.491c2.025,0.466,6.243,0.575,8.162,0.207
        c3.808-0.823-2.082,6.847-2.082,6.887c-1.369,2.986-5.041,1.713-6.818,5.683c-0.684,1.549-3.506,4.327-3.042,6.148
        c0.494,1.781,2.081,2.863,0.274,4.629c0.603,2.793,3.066,7.109-0.385,9.12c-4.601,4.383,2.304,7.52,1.316,11.598
        c-0.9,3.726-6.244,5.725-9.147,2.78c-4.847-0.11-6.872,3.821-10.406,6.45c-2.74,2.041-8.793,2.493-10.327,5.642
        c-1.918,3.929-3.699,8.763-5.341,12.79c-1.699,4.204,6.383,18.762-4.328,15.611c-0.932-0.273-3.396-4.725-3.396-5.738
        c-0.081-3.739-2.738-4.176-4.821-7.477c0.356-3.025,2.466-6.929,4.766-8.052c3.342-1.63,1.919-6.629-2.466-4.465
        c-3.505,1.726-4.709-2.794-6.958-5.287c0.548,0.59-3.064-4.696-3.146-3.697c0.19-1.89,2.876-5.833,3.341-8.448
        c0.575-3.259,0.52-6.764-0.521-10.105c-0.63-2.068-4.656-4.521-6.518-4.437c-1.289,0.287-2.443,0-3.427-0.878
        C290.983,125.675,290.983,128.044,288.845,127.827z"></path>
          <text transform="matrix(1 0 0 1 318.2754 126.7036)" fill="#FFFFFF">MA</text>
        </a>
        </g>
    </svg>