<?xml version="1.0" encoding="ISO-8859-1"?>
<!DOCTYPE svg PUBLIC "-//W3C//DTD SVG 1.0//EN" "http://www.w3.org/TR/2001/REC-SVG-20010904/DTD/svg10.dtd">    
    <svg version="1.1" id="svg-map" xmlns="http://www.w3.org/2000/svg" xmlns:xlink="http://www.w3.org/1999/xlink"
      x="0px" y="0px" width="450px" height="460px" viewBox="0 0 450 460" enable-background="new 0 0 450 460"
      xml:space="preserve">
      <g>
        <a xlink:href="#matogrosso" id="MatoGrosso" title="Mato Grosso" class="estado" name="Mato Grosso" code="51">
          <path stroke="#FFFFFF" stroke-width="1.0404" stroke-linecap="round" stroke-linejoin="round" d="M142.237,173.962
        c4-0.316-1.888-6.452,5-5.738c7.914,0.808,16.295,0.328,24.279,0.218c1.629-0.013,8.902,1.288,7.395-1.833
        c-1.192-2.453,1.821-6.425,0.425-9.725c2.027-0.864,1.289-3.807,2.629-5.107c1.151-1.123,4.176,7.244,4.436,7.819
        c1.097,2.451,0.398,5.478,1.932,7.654c1.41,1.987,4.574,2.136,5.889,4.259c3.136,5.136,10.845,4.137,17.13,4.657
        c20.159,1.656,40.356,2.669,60.486,4.752c-3.48,7.763-3.999,14.912-5.122,22.552c-0.437,2.972,1.863,7.163-0.056,10.065
        c1.945,1.287,1.346,2.753,1.424,4.409c1.151,25.129-20.429,60.186-33.548,58.569c-10.914-1.369-45.3,0.058-46.928-3.396
        c-1.165-3.944-6.136-2.658-8.395-6.603c-2.301-4.051,0.684-6.299,0.737-10.242c-6.997,0.603-14.09-0.384-21.102-0.324
        c0.793-5.016-3.725-9.288-2.929-13.809c0.519-3.025,2.726-2.916,0.932-6.79c-1.206-2.589-0.261-4.247-0.699-6.382
        c-0.289-1.385-1.042-1.876-2.124-2.424c-2.931-1.493,1.246-2.48,2.056-3.644c1.726-2.465,3.299-11.394,6.545-11.612
        c1.219-1.999-1.781-3.643-1.465-5.56c-3.902-3.588,0.506-4.643,0.369-7.984c-0.151-3.627-9.654-3.944-12.256-3.751
        c-1.821,0.137-4.109,0.562-5.888-0.094c0.493-3.521-0.521-6.054-0.535-9.217c-0.014-2.286,1.288-5.177,0.835-7.45
        C143.581,176.618,141.937,174.714,142.237,173.962z"></path>
          <text transform="matrix(1 0 0 1 200.0244 218.4175)" fill="#FFFFFF">MT</text>
        </a>
        </g>
    </svg>