<?xml version="1.0" encoding="ISO-8859-1"?>
<!DOCTYPE svg PUBLIC "-//W3C//DTD SVG 1.0//EN" "http://www.w3.org/TR/2001/REC-SVG-20010904/DTD/svg10.dtd">    
    <svg version="1.1" id="svg-map" xmlns="http://www.w3.org/2000/svg" xmlns:xlink="http://www.w3.org/1999/xlink"
      x="0px" y="0px" width="450px" height="460px" viewBox="0 0 450 460" enable-background="new 0 0 450 460"
      xml:space="preserve">
      <g>
        <a xlink:href="#matogrossodosul" id="MatoGrossodoSul" title="Mato Grosso do Sul" class="estado"
          name="Mato Grosso do Sul" code="50">
          <path stroke="#FFFFFF" stroke-width="1.0404" stroke-linecap="round" stroke-linejoin="round"
            d="M183.198,294.536
        c2.136-4.464,3.177-9.394,5.312-13.61c1.712-3.344-4.067-7.587-2.423-9.807c0.027-0.026,2.738,3.641,3.917,3.725
        c3.204-1.534,4.807-2.272,6.984-5.228c2.615-3.59,10.832-3.014,14.051-0.305c1.259,1.041,3.068,2.107,4.668,2.574
        c3.163,0.934,5.889-3.013,8.559-0.873c3.724,2.982,4.626-1.862,7.86-3.509c1.945-1.012-1.768,8.465-2.244,7.781
        c2.463,0.959,4.285,0.901,6.82,0.959c3.504,0.081,1.805,1.205,2.436,3.339c0.466,1.564,28.948-5.997,29.416,0.578
        c0.302,3.837-0.987,61.813-0.987,61.813s-39.532,5.533-41.602,5.286c-3.889-0.492-3.587-3.231-8.063-0.933
        c-2.028,0.329-6.012,1.205-5.177-2.409c-2.013-4.354-0.111-14.625-4.849-17.088c-1.206-0.659-7.092-2.36-7.504-1.945
        c-1.699,1.777-3.739,1.562-6.121,1.121c-2.904,0.027-5.629-1.614-8.243-1.203c-4.178,0.656-0.603-2.986-1.645-3.535
        c0.932-2.847,1.411-9.912,0.453-11.856c-0.165-0.331-3.52-7.232-2.547-8.108C186.306,297.688,182.334,299.415,183.198,294.536z"></path>
          <text transform="matrix(1 0 0 1 213.2939 306.7236)" fill="#FFFFFF">MS</text>
        </a>
        </g>
    </svg>