<?xml version="1.0" encoding="ISO-8859-1"?>
<!DOCTYPE svg PUBLIC "-//W3C//DTD SVG 1.0//EN" "http://www.w3.org/TR/2001/REC-SVG-20010904/DTD/svg10.dtd">    
    <svg version="1.1" id="svg-map" xmlns="http://www.w3.org/2000/svg" xmlns:xlink="http://www.w3.org/1999/xlink"
      x="0px" y="0px" width="450px" height="460px" viewBox="0 0 450 460" enable-background="new 0 0 450 460"
      xml:space="preserve">
      <g>
        <a xlink:href="#minasgerais" id="Minasgerais" title="Minas Gerais" class="estado" name="Minas Gerais" code="31">
          <path stroke="#FFFFFF" stroke-width="1.0404" stroke-linecap="round" stroke-linejoin="round" d="M262.881,297.305
        c-1.696-5.094,15.531-19.882,18.844-13.421c5.531-7.367,15.886,1.588,19.773-3.944c0.988-1.367,3.015-1.453,3.725-2.957
        c0.326-0.711-0.493-2.793-0.056-3.888c1.369-3.398-4.873-2.355-0.109-6.603c4.547-4.053-1.917-4.739-1.204-8.186
        c0.957-4.604,1.807-4.713,5.613-6.027c1.943-0.688,0.906-8.272,0.083-8.52c-0.108-2.699,1.974-2.546,3.782-1.617
        c2.188-0.135-0.276-3.695,0.957-4.243c-0.357,0.151,5.559,1.999,5.724,2.055c0.986,0.358-0.52,3.534-0.931,3.943
        c8.217-2.355,14.514-11.789,23.279-11.242c4.983,0.316-0.327,4.339,5.367,5.544c0.684,1.234,3.34-1.054,4.054-1.189
        c2.876-0.536,5.53,3.284,8.106,3.886c2.301,3.578,7.503,0.537,10.298,3.001c1.755,1.589,2.188,3.397,3.396,5.313
        c1.314,2.052,3.86-0.465,5.726-0.109c3.257,0.656,6.326,2.026,9.338,3.723c2.19,1.205,0.768,3.179-0.548,4.573
        c-0.765,0.796-3.259,6.165-2.627,5.643c-2.138,1.781-2.628-1.669-3.397,2.764c-0.628,3.674,0.164,4.714,3.149,7.015
        c4.901,3.229-6.765,3.12-6.71,3.504c0.22,0.601-2.846,41.96-3.835,42.179c-6.737,1.562-14.513,5.311-21.744,7.012
        c-12.736,2.985-24.295,3.778-29.471,4.656c0,1.452-5.367,6.872-8.518,1.259c0,0-3.041-7.285-2.821-7.229
        c0.105-0.027,2.138-5.506,2.244-6.137c0.768-3.504-5.042-0.765-5.749-2.188c-0.878-1.81-2.358-4.576-2.166-6.628
        c1.699-1.205,1.672-2.383-0.08-3.562c-1.04-1.095-1.205-2.303-0.521-3.672c-2.329-1.424-3.065-2.683-5.698-2.462
        c-1.479,0.138-4.055,3.668-5.506,0.629c0.878,2.108-4.188,0.769-5.094,1.56c-2.354-1.202-1.779,2.028-2.384,3.069
        c-0.137,0.22-1.014-2.904-1.065-2.961c-1.149-1.175-2.767,4.165-3.505-0.055c0.766-4.105-4.657-2.709-7.67-2.93
        c-4.708-0.353-5.53-1.613-9.858,0.631C262.993,300.562,262.336,299.274,262.881,297.305z"></path>
          <text transform="matrix(1 0 0 1 328.4063 286.4561)" fill="#FFFFFF">MG</text>
        </a>
        </g>
    </svg>