<?xml version="1.0" encoding="ISO-8859-1"?>
<!DOCTYPE svg PUBLIC "-//W3C//DTD SVG 1.0//EN" "http://www.w3.org/TR/2001/REC-SVG-20010904/DTD/svg10.dtd">    
    <svg version="1.1" id="svg-map" xmlns="http://www.w3.org/2000/svg" xmlns:xlink="http://www.w3.org/1999/xlink"
      x="0px" y="0px" width="450px" height="460px" viewBox="0 0 450 460" enable-background="new 0 0 450 460"
      xml:space="preserve">
      <g>
        <a xlink:href="#para" id="Pará" title="Pará" class="estado" name="Pará" code="15">
          <path stroke="#FFFFFF" stroke-width="1.0404" stroke-linecap="round" stroke-linejoin="round" d="M173.378,50.619
        c2.259,2.63,5.629-4.478,7.901-3.82c3.19,0.918,1.478-1.108,5.026-1.752c1.931,0.806,3.096,0.273,3.519-1.631
        c0.535-1.26,1.453-1.726,2.725-1.384c1.768-1.684,13.558,3.603,14.68,0.384c0.629-1.821-4.287-5.709-0.302-6.997
        c1.643-0.533,6.012,0.808,8.75-0.068c3.986-1.288,4.876,2.684,4.382,6.066c0.631,3.587,13.145,5.766,12.982,7.97
        c3.589-1.518,5.354,12.763,7.105,14.447c0.357,4.26,6.304,8.585,7.07,12.544c0.628,3.396,7.065,3.616,8.213,0.095
        c2.578-8.133,9.696-10.022,13.475-16.651c4.603-8.038,3.725,3.752,8.955,1.067c2.11,0.411,2.876,3.629,4.574,4.724
        c3.18,2.027,7.779,0.974,10.572,3.013c-4.192,4.382,8.188,3.752,9.231,3.875c4.682,0.575,8.104,2.383,11.855,3.629
        c-0.164-0.069,4.792,0.52,5.178,1.245c2.026,3.767-4.904,19.214-6.382,21.486c-1.121,1.713-2.932,4.985-3.727,6.834
        c-0.902,2.026-4.764,7.313-4.655,9.229c-1.888,0.972-2.248,4.835-5.012,4.328c-3.096,3.026-8.187,4.999-10.27,8.956
        c2.057,0.781,8.325,1.041,5.311,4.272c-0.821,0.877-1.094,5.533-1.615,6.833c-0.575,1.384-4.464,4.779-6.108,5.34
        c-4.107,1.426-2.736,4.135-4.271,7.655c-0.933,2.054-0.546,3.491,1.756,4.339c-0.083,2.835-0.988,5.575-2.385,7.998
        c-3.041,5.245-9.009,9.818-10.079,16.27c-3.261,3.408-87.066-1.22-87.464-2.644c-1.423-5.012,1.508-24.006-2.808-27.88
        c-0.19-2.082-29.893-6.299-30.714-8.081C150.016,140.479,173.173,58.561,173.378,50.619z M319.139,77.664
        C319.302,76.912,319.74,78.76,319.139,77.664z"></path>
          <text transform="matrix(1 0 0 1 232.7725 122.5137)" fill="#FFFFFF">PA</text>
        </a>
        </g>
    </svg>