<?xml version="1.0" encoding="ISO-8859-1"?>
<!DOCTYPE svg PUBLIC "-//W3C//DTD SVG 1.0//EN" "http://www.w3.org/TR/2001/REC-SVG-20010904/DTD/svg10.dtd">    
    <svg version="1.1" id="svg-map" xmlns="http://www.w3.org/2000/svg" xmlns:xlink="http://www.w3.org/1999/xlink"
      x="0px" y="0px" width="450px" height="460px" viewBox="0 0 450 460" enable-background="new 0 0 450 460"
      xml:space="preserve">
      <g>
        <a xlink:href="#parana" id="Paraná" title="Paraná" class="estado" name="Paraná" code="41">
          <path stroke="#FFFFFF" stroke-width="1.0404" stroke-linecap="round" stroke-linejoin="round" d="M222.225,363.694
        c1.807-2.138,1.889-4.881,2.424-7.479c0.301-1.453,0.465-7.86,1.369-8.736c2.3-0.684,2.3-3.315,2.726-5.204
        c0.616-2.738,2.821-2.958,3.984-5.616c4.369-9.91,38.947-9.529,46.476-9.227c4.658,0.193,15.775,34.563,17.916,33.794
        c-1.728,2.19-5.754,8.929-8.41,8.984c-4.054,0.057-14.215,14.68-14.215,14.68s-37.329-12.05-40.287-11.285
        c-3.875-1.449-2.698-6.491-6.054-8.216C226.663,364.623,222.498,367.8,222.225,363.694z"></path>
          <text transform="matrix(1 0 0 1 248.4453 356.1045)" fill="#FFFFFF">PR</text>
        </a>
        </g>
    </svg>