<?xml version="1.0" encoding="ISO-8859-1"?>
<!DOCTYPE svg PUBLIC "-//W3C//DTD SVG 1.0//EN" "http://www.w3.org/TR/2001/REC-SVG-20010904/DTD/svg10.dtd">    
    <svg version="1.1" id="svg-map" xmlns="http://www.w3.org/2000/svg" xmlns:xlink="http://www.w3.org/1999/xlink"
      x="0px" y="0px" width="450px" height="460px" viewBox="0 0 450 460" enable-background="new 0 0 450 460"
      xml:space="preserve">
      <g>
        <a xlink:href="#riodejaneiro" id="Riodejaneiro" title="Rio de Janeiro" class="estado" name="Rio de Janeiro"
          code="33">
          <path stroke="#FFFFFF" stroke-width="1.0404" stroke-linecap="round" stroke-linejoin="round" d="M332.886,337.429
        c-1.26-2.768,8.409-4.795,7.89-6.71c-3.177-1.864-4.602,1.148-6.63-2.959c4.274-0.686,9.533-4.49,13.831-3.562
        c0.548-0.219,4.902-1.753,4.96,0.167c2.546-1.566,5.479-2.412,8.105-3.837c2.246-1.206,0.932-8.218,3.725-9.643
        c6.054-3.123,1.398,1.836,7.066,2.959c5.888,1.205,5.395,1.48,5.641,7.067c0.247,5.642-8.763,4.381-11.063,8.764
        c-1.039,1.999,1.698,5.368-3.368,4.903c-4.188-0.413-10.628,2.355-9.285-3.18c-1.039-0.08-1.861,0.301-2.464,1.124
        c0,0,0.105,2.767-0.74,2.741c-0.766-0.056-7.643,1.094-7.449,0.463c1.398-0.359,2.708-0.684,4.135-0.794
        c-1.667-0.713-2.957-1.839-4.901-0.142c0.465,0.195-4.227-0.086-3.379-0.113c-0.521,1.727-3.814,0.699-3.879,3.045
        C336.717,337.908,333.927,342.41,332.886,337.429z"></path>
          <path class="circle" d="M355.094,318.613c6.209,0,11.263,5.021,11.263,11.259c0,6.208-5.056,11.264-11.263,11.264
        c-6.211,0-11.263-5.054-11.263-11.264C343.831,323.634,348.883,318.613,355.094,318.613z"></path>
          <text transform="matrix(1 0 0 1 347.4648 334.6807)" fill="#FFFFFF">RJ</text>
        </a>
        </g>
    </svg>