<?xml version="1.0" encoding="ISO-8859-1"?>
<!DOCTYPE svg PUBLIC "-//W3C//DTD SVG 1.0//EN" "http://www.w3.org/TR/2001/REC-SVG-20010904/DTD/svg10.dtd">    
    <svg version="1.1" id="svg-map" xmlns="http://www.w3.org/2000/svg" xmlns:xlink="http://www.w3.org/1999/xlink"
      x="0px" y="0px" width="450px" height="460px" viewBox="0 0 450 460" enable-background="new 0 0 450 460"
      xml:space="preserve">
      <g>
        <a xlink:href="#riograndedosul" id="riograndedosul" title="Rio Grande do Sul" class="estado"
          name="Rio Grande do Sul" code="43">
          <path stroke="#FFFFFF" stroke-width="1.0404" stroke-linecap="round" stroke-linejoin="round"
            d="M191.236,416.881
        c0.52-2.684,7.38-8.409,9.477-10.351c0.37-0.359,8.599-10.08,9.174-8.329c-1.301-3.89,2.781-1.589,3.917-4.819
        c0.26-0.521,7.04-4.821,7.109-4.795c1.436-0.191,6.721-3.695,7.421-3.257c1.204-2.028,8.927-1.479,8.653-0.824
        c1.165-0.38,2.284-0.877,3.326-1.479c0.221-0.821,22.459,7.533,24.319,11.531c2.523,5.34,12.217,2.822,13.15,5.563
        c0.106,0.275-5.809,9.339-3.89,9.173c-0.985,0.08,3.204-2.875,3.834,0.409c-2.793,3.619-4.6,7.834-6.571,11.944
        c-3.696,7.614-8.872,12.765-15.886,17.42c-7.394,4.902-7.339,11.941-13.257,17.693c-8.091,7.942-10.159-0.574-4.08-5.752
        c3.806-3.231-22.527-19.746-25.578-22.732c-1.918-1.862-2.384,0.274-4.219,1.15c-2.547,1.205-1.917-2.822-3.588-4.273
        c-2.3-1.999-4.793-5.479-7.737-6.68c-3.478-1.367-5.615,5.145-9.052,0.821C189.168,418.854,190.332,418.032,191.236,416.881z"></path>
          <text transform="matrix(1 0 0 1 231.0313 414.4658)" fill="#FFFFFF">RS</text>
        </a>
        </g>
    </svg>