<?xml version="1.0" encoding="ISO-8859-1"?>
<!DOCTYPE svg PUBLIC "-//W3C//DTD SVG 1.0//EN" "http://www.w3.org/TR/2001/REC-SVG-20010904/DTD/svg10.dtd">    
    <svg version="1.1" id="svg-map" xmlns="http://www.w3.org/2000/svg" xmlns:xlink="http://www.w3.org/1999/xlink"
      x="0px" y="0px" width="450px" height="460px" viewBox="0 0 450 460" enable-background="new 0 0 450 460"
      xml:space="preserve">
      <g>
        <a xlink:href="#rondonia" id="Rondônia" title="Rondônia" class="estado" name="Rondônia" code="11">
          <path stroke="#FFFFFF" stroke-width="1.0404" stroke-linecap="round" stroke-linejoin="round" d="M83.34,180.232
        c0.931-1.574,5.341-4.668,6.312-4.656c1.355-0.067,2.671,0.138,3.958,0.603c3.012,1.44,2.039-1.135,5.341-0.123
        c-1.274-2.287,3.793-2.943,2.86-0.315c3.068,0.247,2.725-4.683,6.668-5.12c4.438-0.508,5.054-0.646,7.122-4.534
        c0.135-0.246,2.628-5.519,2.752-5.025c2.191-6.491,14.585-0.878,15.638,3.355c0.397,1.615,1.834,3.137,3.642,4.369
        c1.246,0.862,6.327-3.999,6.134,1.314c-0.78,1.274,26.663,7.656,30.005,19.282c3.82,13.338-16.421,32.167-18.173,34.043
        c-4.464,1.191-2.039,1.726-6.6,0.15c-2.574-0.875-6.422,0.986-9.08,0.289c-2.409-0.645-3.041-3.957-5.86-4.683
        c-3.055-0.78-5.423-1.795-7.654-3.93c-4.041-3.876-8.983-2.645-14.475-3.808c-1.835-0.083-6.053-6.779-7.874-5.327
        c-1.821-0.438-5.381-9.094-3.397-11.204c0.124-1.67-0.26-3.204-1.163-4.627c-0.986-2.644,1.041-5.026,0.863-7.806
        c-0.384-6.081-1.028-1.986-3.382-1.903C94.336,180.686,85.957,181.671,83.34,180.232z"></path>
          <text transform="matrix(1 0 0 1 118.1299 195.3193)" fill="#FFFFFF">RO</text>
        </a>
        </g>
    </svg>