<?xml version="1.0" encoding="ISO-8859-1"?>
<!DOCTYPE svg PUBLIC "-//W3C//DTD SVG 1.0//EN" "http://www.w3.org/TR/2001/REC-SVG-20010904/DTD/svg10.dtd">    
    <svg version="1.1" id="svg-map" xmlns="http://www.w3.org/2000/svg" xmlns:xlink="http://www.w3.org/1999/xlink"
      x="0px" y="0px" width="450px" height="460px" viewBox="0 0 450 460" enable-background="new 0 0 450 460"
      xml:space="preserve">
      <g>
        <a xlink:href="#roraima" id="Roraima" title="Roraima" class="estado" name="Roraima" code="14">
          <path stroke="#FFFFFF" stroke-width="1.0404" stroke-linecap="round" stroke-linejoin="round" d="M113.18,24.107
        c-0.972-2.753-7.861-5.889-6.999-8.984c0.068-0.232,13.229,6.053,12.79,2.808c0.398,1.329,1.219,1.889,2.439,1.685
        c1.889-1.301,7.148,4.204,8.216,1.889c0.438-0.959-1.657-3.753,0.74-3.848c1.026,0.438,1.534,0.164,1.52-0.822
        c0.835-1.752,3.575,0.219,4.793,0.083c0.767-1.056,10.625-3.026,9.037-5.094c1.37,0.438,4.574,0.808,4.63-1.547
        c4.546-2.054,1.15-4.409,2.644-6.354c2.177-2.82,9.791,0.809,7.327,5.738c-1.972,3.93,7.121,4.027,5.724,9.366
        c-0.452,1.686-2.479,2.724-3.423,3.971c-1.179,1.546-1.836,9.243-1.356,11.53c1.041,4.889,3.231,8.695,6.134,12.16
        c1.712,2.027,5.614,2.261,5.724,4.369c0.164,2.945,1.165,6.177,0.329,9.092c-1.547,5.424-36.618,30.471-36.618,30.471
        s-12.517-52.736-20.335-54.063C115.261,36.417,111.523,25.682,113.18,24.107z"></path>
          <text transform="matrix(1 0 0 1 136.2939 42.3862)" fill="#FFFFFF">RR</text>
        </a>
        </g>
    </svg>