<?xml version="1.0" encoding="ISO-8859-1"?>
<!DOCTYPE svg PUBLIC "-//W3C//DTD SVG 1.0//EN" "http://www.w3.org/TR/2001/REC-SVG-20010904/DTD/svg10.dtd">    
    <svg version="1.1" id="svg-map" xmlns="http://www.w3.org/2000/svg" xmlns:xlink="http://www.w3.org/1999/xlink"
      x="0px" y="0px" width="450px" height="460px" viewBox="0 0 450 460" enable-background="new 0 0 450 460"
      xml:space="preserve">
      <g>
        <a xlink:href="#saopaulo" id="Saopaulo" title="São Paulo" class="estado" name="São Paulo" code="35">
          <path stroke="#FFFFFF" stroke-width="1.0404" stroke-linecap="round" stroke-linejoin="round" d="M239.3,330.554
        c3.26-4.356,9.56-5.039,11.531-10.792c1.369-3.942,3.889-8.818,6.135-13.036c1.561-2.957,7.749-7.121,10.517-8.65
        c0.383-0.196,32.974-6.138,42.234-1.701c20.265,9.724,26.017,33.879,27.854,33.304c4.408-1.425,5.34,3.778,2.106,4.49
        c-1.754,0.413-6.519,1.479-6.49,3.399c0.027,3.448,0.521,1.615-2.931,3.639c-2.189-1.42-3.34,4.111-4.763,3.426
        c-4.271-2.244-6.958,2.96-9.258,1.918c-4.271-1.918-16.98,13.092-19.638,15.336c0.245-0.218-1.148-1.479-1.587-2.685
        c-0.466-1.369-2.658,0.385-4.025,0.082c-0.986-0.192,1.751-4.079-2.303-4.52c-1.369-0.164-3.753,0.303-4.929,0.084
        c-2.903-0.547,0.108-2.41-0.439-3.862c-1.067-2.986-3.013-4.931-3.751-7.779c-0.52-1.945,0.165-7.531-3.615-7.395
        c-0.848-2.956-6.628-1.451-9.066-1.862c-0.162,0.163-8.846-2.684-10.079-2.684c-1.616-0.029-6.791-3.396-7.121-0.274
        C247.982,330.386,239.876,331.21,239.3,330.554z"></path>
          <text transform="matrix(1 0 0 1 280.6816 327.3193)" fill="#FFFFFF">SP</text>
        </a>
        </g>
    </svg>